<mxfile host="app.diagrams.net" agent="Mozilla/5.0 (X11; Linux x86_64; rv:135.0) Gecko/20100101 Firefox/135.0" version="27.0.8" pages="3">
  <diagram id="yl0jH9DGH8Iqt7PB2Dmf" name="Воронка Обслуживания">
    <mxGraphModel dx="3023" dy="2402" grid="1" gridSize="10" guides="1" tooltips="1" connect="1" arrows="1" fold="1" page="1" pageScale="1" pageWidth="850" pageHeight="1100" math="0" shadow="0">
      <root>
        <mxCell id="0" />
        <mxCell id="1" parent="0" />
        <mxCell id="XpxgRr7ZllXwCVMDja0l-89" value="" style="group;fillColor=#dae8fc;strokeColor=#6c8ebf;" parent="1" vertex="1" connectable="0">
          <mxGeometry x="970" y="-390" width="500" height="230" as="geometry" />
        </mxCell>
        <mxCell id="XpxgRr7ZllXwCVMDja0l-78" value="" style="rounded=0;whiteSpace=wrap;html=1;fillColor=#dae8fc;strokeColor=#6c8ebf;" parent="XpxgRr7ZllXwCVMDja0l-89" vertex="1">
          <mxGeometry y="30" width="500" height="200" as="geometry" />
        </mxCell>
        <mxCell id="XpxgRr7ZllXwCVMDja0l-12" value="Маршрутизация" style="shape=module;align=left;spacingLeft=20;align=center;verticalAlign=top;whiteSpace=wrap;html=1;" parent="XpxgRr7ZllXwCVMDja0l-89" vertex="1">
          <mxGeometry x="30" y="130" width="130" height="50" as="geometry" />
        </mxCell>
        <mxCell id="XpxgRr7ZllXwCVMDja0l-33" value="Диалоговая Платформа" style="shape=module;align=left;spacingLeft=20;align=center;verticalAlign=top;whiteSpace=wrap;html=1;" parent="XpxgRr7ZllXwCVMDja0l-89" vertex="1">
          <mxGeometry x="215" y="50" width="130" height="50" as="geometry" />
        </mxCell>
        <mxCell id="XpxgRr7ZllXwCVMDja0l-79" value="Умная Поддержка" style="text;html=1;align=center;verticalAlign=middle;resizable=0;points=[];autosize=1;strokeColor=none;fillColor=none;" parent="XpxgRr7ZllXwCVMDja0l-89" vertex="1">
          <mxGeometry width="130" height="30" as="geometry" />
        </mxCell>
        <mxCell id="XpxgRr7ZllXwCVMDja0l-80" value="Копилоты" style="shape=module;align=left;spacingLeft=20;align=center;verticalAlign=top;whiteSpace=wrap;html=1;" parent="XpxgRr7ZllXwCVMDja0l-89" vertex="1">
          <mxGeometry x="220" y="130" width="125" height="50" as="geometry" />
        </mxCell>
        <mxCell id="7s3dTTGu1TtM-MfIiU9b-1" value="Стартовый экран" style="shape=module;align=left;spacingLeft=20;align=center;verticalAlign=top;whiteSpace=wrap;html=1;" parent="XpxgRr7ZllXwCVMDja0l-89" vertex="1">
          <mxGeometry x="30" y="50" width="130" height="50" as="geometry" />
        </mxCell>
        <mxCell id="9NRflTOE4pOhBBJl8ECs-3" value="Concept Car" style="shape=module;align=left;spacingLeft=20;align=center;verticalAlign=top;whiteSpace=wrap;html=1;" parent="XpxgRr7ZllXwCVMDja0l-89" vertex="1">
          <mxGeometry x="360" y="130" width="125" height="50" as="geometry" />
        </mxCell>
        <mxCell id="XpxgRr7ZllXwCVMDja0l-75" value="" style="rounded=0;whiteSpace=wrap;html=1;fillColor=#dae8fc;strokeColor=#6c8ebf;" parent="1" vertex="1">
          <mxGeometry x="1630" y="-128" width="190" height="208" as="geometry" />
        </mxCell>
        <mxCell id="XpxgRr7ZllXwCVMDja0l-15" style="edgeStyle=orthogonalEdgeStyle;rounded=0;orthogonalLoop=1;jettySize=auto;html=1;entryX=0;entryY=0.5;entryDx=0;entryDy=0;exitX=0;exitY=0.5;exitDx=0;exitDy=0;exitPerimeter=0;" parent="1" source="XpxgRr7ZllXwCVMDja0l-26" target="XpxgRr7ZllXwCVMDja0l-19" edge="1">
          <mxGeometry relative="1" as="geometry">
            <mxPoint x="90" y="134.9655172413793" as="sourcePoint" />
            <Array as="points">
              <mxPoint x="-70" y="-150" />
              <mxPoint x="-70" y="410" />
              <mxPoint x="164" y="410" />
            </Array>
          </mxGeometry>
        </mxCell>
        <mxCell id="XpxgRr7ZllXwCVMDja0l-26" value="события чата/звонка" style="shape=providedRequiredInterface;html=1;verticalLabelPosition=bottom;sketch=0;" parent="1" vertex="1">
          <mxGeometry x="-80" y="-160" width="20" height="20" as="geometry" />
        </mxCell>
        <mxCell id="XpxgRr7ZllXwCVMDja0l-27" style="edgeStyle=orthogonalEdgeStyle;rounded=0;orthogonalLoop=1;jettySize=auto;html=1;entryX=1;entryY=0.5;entryDx=0;entryDy=0;entryPerimeter=0;" parent="1" source="XpxgRr7ZllXwCVMDja0l-13" target="XpxgRr7ZllXwCVMDja0l-26" edge="1">
          <mxGeometry relative="1" as="geometry">
            <Array as="points">
              <mxPoint x="10" y="-150" />
            </Array>
          </mxGeometry>
        </mxCell>
        <mxCell id="XpxgRr7ZllXwCVMDja0l-29" value="&lt;div&gt;информация&amp;nbsp;&lt;/div&gt;&lt;div&gt;о проблеме&lt;/div&gt;" style="shape=providedRequiredInterface;html=1;verticalLabelPosition=bottom;sketch=0;" parent="1" vertex="1">
          <mxGeometry x="400" y="190" width="20" height="20" as="geometry" />
        </mxCell>
        <mxCell id="XpxgRr7ZllXwCVMDja0l-30" style="edgeStyle=orthogonalEdgeStyle;rounded=0;orthogonalLoop=1;jettySize=auto;html=1;entryX=0;entryY=0.5;entryDx=0;entryDy=0;entryPerimeter=0;" parent="1" source="XpxgRr7ZllXwCVMDja0l-19" target="XpxgRr7ZllXwCVMDja0l-29" edge="1">
          <mxGeometry relative="1" as="geometry" />
        </mxCell>
        <mxCell id="XpxgRr7ZllXwCVMDja0l-31" style="edgeStyle=orthogonalEdgeStyle;rounded=0;orthogonalLoop=1;jettySize=auto;html=1;entryX=0;entryY=0;entryDx=0;entryDy=35;entryPerimeter=0;" parent="1" source="XpxgRr7ZllXwCVMDja0l-29" target="XpxgRr7ZllXwCVMDja0l-12" edge="1">
          <mxGeometry relative="1" as="geometry" />
        </mxCell>
        <mxCell id="XpxgRr7ZllXwCVMDja0l-32" value="Proc Player" style="shape=module;align=left;spacingLeft=20;align=center;verticalAlign=top;whiteSpace=wrap;html=1;" parent="1" vertex="1">
          <mxGeometry x="1660" y="-108" width="130" height="50" as="geometry" />
        </mxCell>
        <mxCell id="XpxgRr7ZllXwCVMDja0l-36" style="edgeStyle=orthogonalEdgeStyle;rounded=0;orthogonalLoop=1;jettySize=auto;html=1;entryX=0;entryY=0;entryDx=0;entryDy=15;entryPerimeter=0;" parent="1" source="XpxgRr7ZllXwCVMDja0l-34" target="XpxgRr7ZllXwCVMDja0l-12" edge="1">
          <mxGeometry relative="1" as="geometry">
            <Array as="points">
              <mxPoint x="490" y="-330" />
              <mxPoint x="490" y="-245" />
            </Array>
          </mxGeometry>
        </mxCell>
        <mxCell id="XpxgRr7ZllXwCVMDja0l-34" value="&lt;div&gt;управление&amp;nbsp;&lt;/div&gt;&lt;div&gt;звонком/чатом&lt;/div&gt;" style="shape=providedRequiredInterface;html=1;verticalLabelPosition=bottom;sketch=0;" parent="1" vertex="1">
          <mxGeometry x="375" y="-340" width="20" height="20" as="geometry" />
        </mxCell>
        <mxCell id="XpxgRr7ZllXwCVMDja0l-35" style="edgeStyle=orthogonalEdgeStyle;rounded=0;orthogonalLoop=1;jettySize=auto;html=1;entryX=0;entryY=0.5;entryDx=0;entryDy=0;entryPerimeter=0;" parent="1" source="XpxgRr7ZllXwCVMDja0l-13" target="XpxgRr7ZllXwCVMDja0l-34" edge="1">
          <mxGeometry relative="1" as="geometry" />
        </mxCell>
        <mxCell id="XpxgRr7ZllXwCVMDja0l-37" style="edgeStyle=orthogonalEdgeStyle;rounded=0;orthogonalLoop=1;jettySize=auto;html=1;entryX=1;entryY=0.5;entryDx=0;entryDy=0;entryPerimeter=0;exitX=0;exitY=0;exitDx=0;exitDy=15;exitPerimeter=0;" parent="1" source="XpxgRr7ZllXwCVMDja0l-33" target="XpxgRr7ZllXwCVMDja0l-34" edge="1">
          <mxGeometry relative="1" as="geometry">
            <Array as="points">
              <mxPoint x="1140" y="-325" />
              <mxPoint x="1140" y="-410" />
              <mxPoint x="790" y="-410" />
              <mxPoint x="790" y="-330" />
            </Array>
          </mxGeometry>
        </mxCell>
        <mxCell id="XpxgRr7ZllXwCVMDja0l-38" value="&lt;div&gt;проигрывание&lt;/div&gt;&lt;div&gt;процедур&lt;/div&gt;" style="shape=providedRequiredInterface;html=1;verticalLabelPosition=bottom;sketch=0;" parent="1" vertex="1">
          <mxGeometry x="1551" y="-90" width="20" height="20" as="geometry" />
        </mxCell>
        <mxCell id="XpxgRr7ZllXwCVMDja0l-39" style="edgeStyle=orthogonalEdgeStyle;rounded=0;orthogonalLoop=1;jettySize=auto;html=1;entryX=0;entryY=0.5;entryDx=0;entryDy=0;entryPerimeter=0;" parent="1" source="XpxgRr7ZllXwCVMDja0l-33" target="XpxgRr7ZllXwCVMDja0l-38" edge="1">
          <mxGeometry relative="1" as="geometry">
            <Array as="points">
              <mxPoint x="1250" y="-410" />
              <mxPoint x="1490" y="-410" />
              <mxPoint x="1490" y="-80" />
            </Array>
          </mxGeometry>
        </mxCell>
        <mxCell id="XpxgRr7ZllXwCVMDja0l-40" style="edgeStyle=orthogonalEdgeStyle;rounded=0;orthogonalLoop=1;jettySize=auto;html=1;entryX=1;entryY=0.5;entryDx=0;entryDy=0;entryPerimeter=0;" parent="1" source="XpxgRr7ZllXwCVMDja0l-32" target="XpxgRr7ZllXwCVMDja0l-38" edge="1">
          <mxGeometry relative="1" as="geometry" />
        </mxCell>
        <mxCell id="XpxgRr7ZllXwCVMDja0l-63" style="edgeStyle=orthogonalEdgeStyle;rounded=0;orthogonalLoop=1;jettySize=auto;html=1;entryX=0;entryY=0.5;entryDx=0;entryDy=0;entryPerimeter=0;" parent="1" source="XpxgRr7ZllXwCVMDja0l-42" target="XpxgRr7ZllXwCVMDja0l-38" edge="1">
          <mxGeometry relative="1" as="geometry">
            <mxPoint x="990" y="-90" as="targetPoint" />
            <Array as="points">
              <mxPoint x="1490" y="-80" />
            </Array>
          </mxGeometry>
        </mxCell>
        <mxCell id="XpxgRr7ZllXwCVMDja0l-51" value="SURF" style="shape=module;align=left;spacingLeft=20;align=center;verticalAlign=top;whiteSpace=wrap;html=1;" parent="1" vertex="1">
          <mxGeometry x="830" y="50" width="130" height="50" as="geometry" />
        </mxCell>
        <mxCell id="XpxgRr7ZllXwCVMDja0l-59" value="&lt;div&gt;Информация&lt;/div&gt;&lt;div&gt;о Сотруднике&lt;/div&gt;" style="shape=providedRequiredInterface;html=1;verticalLabelPosition=bottom;sketch=0;" parent="1" vertex="1">
          <mxGeometry x="1230" y="470" width="20" height="20" as="geometry" />
        </mxCell>
        <mxCell id="XpxgRr7ZllXwCVMDja0l-61" style="edgeStyle=orthogonalEdgeStyle;rounded=0;orthogonalLoop=1;jettySize=auto;html=1;entryX=0.5;entryY=1;entryDx=0;entryDy=0;exitX=1;exitY=0.5;exitDx=0;exitDy=0;exitPerimeter=0;" parent="1" source="XpxgRr7ZllXwCVMDja0l-59" target="XpxgRr7ZllXwCVMDja0l-12" edge="1">
          <mxGeometry relative="1" as="geometry">
            <mxPoint x="1229.9966666666671" y="429.25" as="sourcePoint" />
            <mxPoint x="1988.34" y="380" as="targetPoint" />
            <Array as="points">
              <mxPoint x="1340" y="480" />
              <mxPoint x="1340" y="420" />
              <mxPoint x="1065" y="420" />
            </Array>
          </mxGeometry>
        </mxCell>
        <mxCell id="XpxgRr7ZllXwCVMDja0l-64" style="edgeStyle=orthogonalEdgeStyle;rounded=0;orthogonalLoop=1;jettySize=auto;html=1;entryX=1;entryY=0.5;entryDx=0;entryDy=0;entryPerimeter=0;exitX=0.25;exitY=0;exitDx=0;exitDy=0;" parent="1" source="XpxgRr7ZllXwCVMDja0l-42" target="XpxgRr7ZllXwCVMDja0l-29" edge="1">
          <mxGeometry relative="1" as="geometry">
            <Array as="points">
              <mxPoint x="1416" y="200" />
            </Array>
          </mxGeometry>
        </mxCell>
        <mxCell id="XpxgRr7ZllXwCVMDja0l-66" value="" style="rounded=0;whiteSpace=wrap;html=1;fillColor=#f8cecc;strokeColor=#b85450;" parent="1" vertex="1">
          <mxGeometry x="360" y="-760" width="380" height="100" as="geometry" />
        </mxCell>
        <mxCell id="XpxgRr7ZllXwCVMDja0l-67" value="Прочее" style="text;html=1;align=center;verticalAlign=middle;resizable=0;points=[];autosize=1;strokeColor=none;fillColor=none;" parent="1" vertex="1">
          <mxGeometry x="360" y="-790" width="70" height="30" as="geometry" />
        </mxCell>
        <mxCell id="XpxgRr7ZllXwCVMDja0l-68" value="DDT" style="shape=module;align=left;spacingLeft=20;align=center;verticalAlign=top;whiteSpace=wrap;html=1;" parent="1" vertex="1">
          <mxGeometry x="380" y="-740" width="130" height="50" as="geometry" />
        </mxCell>
        <mxCell id="XpxgRr7ZllXwCVMDja0l-69" value="&lt;div&gt;Employee&amp;nbsp;&lt;/div&gt;&lt;div&gt;Tools&lt;/div&gt;" style="shape=module;align=left;spacingLeft=20;align=center;verticalAlign=top;whiteSpace=wrap;html=1;" parent="1" vertex="1">
          <mxGeometry x="560" y="-740" width="130" height="50" as="geometry" />
        </mxCell>
        <mxCell id="XpxgRr7ZllXwCVMDja0l-70" value="&lt;div&gt;отправка/получение&lt;/div&gt;&lt;div&gt;сообщения&lt;/div&gt;" style="shape=providedRequiredInterface;html=1;verticalLabelPosition=bottom;sketch=0;" parent="1" vertex="1">
          <mxGeometry x="480" y="-450" width="20" height="20" as="geometry" />
        </mxCell>
        <mxCell id="XpxgRr7ZllXwCVMDja0l-71" style="edgeStyle=orthogonalEdgeStyle;rounded=0;orthogonalLoop=1;jettySize=auto;html=1;entryX=0;entryY=0.5;entryDx=0;entryDy=0;entryPerimeter=0;exitX=1;exitY=0.25;exitDx=0;exitDy=0;" parent="1" source="XpxgRr7ZllXwCVMDja0l-13" target="XpxgRr7ZllXwCVMDja0l-70" edge="1">
          <mxGeometry relative="1" as="geometry">
            <Array as="points">
              <mxPoint x="430" y="-440" />
              <mxPoint x="430" y="-440" />
            </Array>
          </mxGeometry>
        </mxCell>
        <mxCell id="XpxgRr7ZllXwCVMDja0l-72" style="edgeStyle=orthogonalEdgeStyle;rounded=0;orthogonalLoop=1;jettySize=auto;html=1;entryX=1;entryY=0.5;entryDx=0;entryDy=0;entryPerimeter=0;" parent="1" source="XpxgRr7ZllXwCVMDja0l-52" target="XpxgRr7ZllXwCVMDja0l-70" edge="1">
          <mxGeometry relative="1" as="geometry" />
        </mxCell>
        <mxCell id="XpxgRr7ZllXwCVMDja0l-73" style="edgeStyle=orthogonalEdgeStyle;rounded=0;orthogonalLoop=1;jettySize=auto;html=1;entryX=1;entryY=0.5;entryDx=0;entryDy=0;entryPerimeter=0;" parent="1" source="XpxgRr7ZllXwCVMDja0l-66" target="XpxgRr7ZllXwCVMDja0l-70" edge="1">
          <mxGeometry relative="1" as="geometry" />
        </mxCell>
        <mxCell id="XpxgRr7ZllXwCVMDja0l-74" value="" style="group" parent="1" vertex="1" connectable="0">
          <mxGeometry x="-110" y="-500" width="400" height="150" as="geometry" />
        </mxCell>
        <mxCell id="XpxgRr7ZllXwCVMDja0l-13" value="" style="rounded=0;whiteSpace=wrap;html=1;fillColor=#dae8fc;strokeColor=#6c8ebf;" parent="XpxgRr7ZllXwCVMDja0l-74" vertex="1">
          <mxGeometry x="14" y="30" width="386" height="120" as="geometry" />
        </mxCell>
        <mxCell id="XpxgRr7ZllXwCVMDja0l-4" value="TMsg" style="shape=module;align=left;spacingLeft=20;align=center;verticalAlign=top;whiteSpace=wrap;html=1;" parent="XpxgRr7ZllXwCVMDja0l-74" vertex="1">
          <mxGeometry x="210" y="60" width="130" height="50" as="geometry" />
        </mxCell>
        <mxCell id="XpxgRr7ZllXwCVMDja0l-5" value="Телефония" style="shape=module;align=left;spacingLeft=20;align=center;verticalAlign=top;whiteSpace=wrap;html=1;" parent="XpxgRr7ZllXwCVMDja0l-74" vertex="1">
          <mxGeometry x="50" y="60" width="130" height="50" as="geometry" />
        </mxCell>
        <mxCell id="XpxgRr7ZllXwCVMDja0l-14" value="Каналы" style="text;html=1;align=center;verticalAlign=middle;resizable=0;points=[];autosize=1;strokeColor=none;fillColor=none;" parent="XpxgRr7ZllXwCVMDja0l-74" vertex="1">
          <mxGeometry width="70" height="30" as="geometry" />
        </mxCell>
        <mxCell id="XpxgRr7ZllXwCVMDja0l-76" value="TWork" style="text;html=1;align=center;verticalAlign=middle;resizable=0;points=[];autosize=1;strokeColor=none;fillColor=none;" parent="1" vertex="1">
          <mxGeometry x="1630" y="-158" width="60" height="30" as="geometry" />
        </mxCell>
        <mxCell id="XpxgRr7ZllXwCVMDja0l-82" style="edgeStyle=orthogonalEdgeStyle;rounded=0;orthogonalLoop=1;jettySize=auto;html=1;entryX=1;entryY=0.5;entryDx=0;entryDy=0;entryPerimeter=0;" parent="1" source="XpxgRr7ZllXwCVMDja0l-80" target="XpxgRr7ZllXwCVMDja0l-91" edge="1">
          <mxGeometry relative="1" as="geometry">
            <Array as="points">
              <mxPoint x="1252" y="160" />
              <mxPoint x="1680" y="160" />
              <mxPoint x="1680" y="380" />
            </Array>
          </mxGeometry>
        </mxCell>
        <mxCell id="XpxgRr7ZllXwCVMDja0l-84" value="" style="group;" parent="1" vertex="1" connectable="0">
          <mxGeometry x="1310" y="490" width="426" height="260" as="geometry" />
        </mxCell>
        <mxCell id="XpxgRr7ZllXwCVMDja0l-42" value="" style="rounded=0;whiteSpace=wrap;html=1;fillColor=#f8cecc;strokeColor=#b85450;" parent="XpxgRr7ZllXwCVMDja0l-84" vertex="1">
          <mxGeometry y="30" width="426" height="230" as="geometry" />
        </mxCell>
        <mxCell id="XpxgRr7ZllXwCVMDja0l-43" value="CRM ФЛ" style="text;html=1;align=center;verticalAlign=middle;resizable=0;points=[];autosize=1;strokeColor=none;fillColor=none;" parent="XpxgRr7ZllXwCVMDja0l-84" vertex="1">
          <mxGeometry width="70" height="30" as="geometry" />
        </mxCell>
        <mxCell id="XpxgRr7ZllXwCVMDja0l-44" value="Продажи" style="shape=module;align=left;spacingLeft=20;align=center;verticalAlign=top;whiteSpace=wrap;html=1;" parent="XpxgRr7ZllXwCVMDja0l-84" vertex="1">
          <mxGeometry x="15" y="50" width="147" height="50" as="geometry" />
        </mxCell>
        <mxCell id="XpxgRr7ZllXwCVMDja0l-45" value="Платформизация.1" style="shape=module;align=left;spacingLeft=20;align=center;verticalAlign=top;whiteSpace=wrap;html=1;" parent="XpxgRr7ZllXwCVMDja0l-84" vertex="1">
          <mxGeometry x="226" y="50" width="150" height="50" as="geometry" />
        </mxCell>
        <mxCell id="XpxgRr7ZllXwCVMDja0l-46" value="Платформизация.2" style="shape=module;align=left;spacingLeft=20;align=center;verticalAlign=top;whiteSpace=wrap;html=1;" parent="XpxgRr7ZllXwCVMDja0l-84" vertex="1">
          <mxGeometry x="226" y="120" width="150" height="50" as="geometry" />
        </mxCell>
        <mxCell id="XpxgRr7ZllXwCVMDja0l-47" value="Платформизация.3" style="shape=module;align=left;spacingLeft=20;align=center;verticalAlign=top;whiteSpace=wrap;html=1;" parent="XpxgRr7ZllXwCVMDja0l-84" vertex="1">
          <mxGeometry x="15" y="120" width="150" height="50" as="geometry" />
        </mxCell>
        <mxCell id="XpxgRr7ZllXwCVMDja0l-48" value="Employee Platform" style="shape=module;align=left;spacingLeft=20;align=center;verticalAlign=top;whiteSpace=wrap;html=1;" parent="XpxgRr7ZllXwCVMDja0l-84" vertex="1">
          <mxGeometry x="15" y="190" width="150" height="50" as="geometry" />
        </mxCell>
        <mxCell id="XpxgRr7ZllXwCVMDja0l-85" value="" style="group;" parent="1" vertex="1" connectable="0">
          <mxGeometry x="800" y="610" width="390" height="140" as="geometry" />
        </mxCell>
        <mxCell id="XpxgRr7ZllXwCVMDja0l-52" value="" style="rounded=0;whiteSpace=wrap;html=1;fillColor=#f8cecc;strokeColor=#b85450;" parent="XpxgRr7ZllXwCVMDja0l-85" vertex="1">
          <mxGeometry x="4" y="30" width="386" height="110" as="geometry" />
        </mxCell>
        <mxCell id="XpxgRr7ZllXwCVMDja0l-53" value="Синхронное взаимодействие" style="shape=module;align=left;spacingLeft=20;align=center;verticalAlign=top;whiteSpace=wrap;html=1;" parent="XpxgRr7ZllXwCVMDja0l-85" vertex="1">
          <mxGeometry x="30" y="60" width="130" height="50" as="geometry" />
        </mxCell>
        <mxCell id="XpxgRr7ZllXwCVMDja0l-55" value="Центр Поддержки" style="text;html=1;align=center;verticalAlign=middle;resizable=0;points=[];autosize=1;strokeColor=none;fillColor=none;" parent="XpxgRr7ZllXwCVMDja0l-85" vertex="1">
          <mxGeometry width="120" height="30" as="geometry" />
        </mxCell>
        <mxCell id="XpxgRr7ZllXwCVMDja0l-57" value="Асинхронное взаимодействие" style="shape=module;align=left;spacingLeft=20;align=center;verticalAlign=top;whiteSpace=wrap;html=1;" parent="XpxgRr7ZllXwCVMDja0l-85" vertex="1">
          <mxGeometry x="190" y="60" width="130" height="50" as="geometry" />
        </mxCell>
        <mxCell id="XpxgRr7ZllXwCVMDja0l-86" value="" style="group" parent="1" vertex="1" connectable="0">
          <mxGeometry x="160" y="270" width="390" height="260" as="geometry" />
        </mxCell>
        <mxCell id="XpxgRr7ZllXwCVMDja0l-19" value="" style="rounded=0;whiteSpace=wrap;html=1;fillColor=#dae8fc;strokeColor=#6c8ebf;" parent="XpxgRr7ZllXwCVMDja0l-86" vertex="1">
          <mxGeometry x="4" y="30" width="386" height="230" as="geometry" />
        </mxCell>
        <mxCell id="XpxgRr7ZllXwCVMDja0l-1" value="Классификатор" style="shape=module;align=left;spacingLeft=20;align=center;verticalAlign=top;whiteSpace=wrap;html=1;" parent="XpxgRr7ZllXwCVMDja0l-86" vertex="1">
          <mxGeometry x="30" y="60" width="130" height="50" as="geometry" />
        </mxCell>
        <mxCell id="XpxgRr7ZllXwCVMDja0l-2" value="Сервис взаимодействия" style="shape=module;align=left;spacingLeft=20;align=center;verticalAlign=top;whiteSpace=wrap;html=1;" parent="XpxgRr7ZllXwCVMDja0l-86" vertex="1">
          <mxGeometry x="190" y="130" width="130" height="50" as="geometry" />
        </mxCell>
        <mxCell id="XpxgRr7ZllXwCVMDja0l-20" value="Problem Platform" style="text;html=1;align=center;verticalAlign=middle;resizable=0;points=[];autosize=1;strokeColor=none;fillColor=none;" parent="XpxgRr7ZllXwCVMDja0l-86" vertex="1">
          <mxGeometry width="120" height="30" as="geometry" />
        </mxCell>
        <mxCell id="XpxgRr7ZllXwCVMDja0l-23" value="Склейка" style="shape=module;align=left;spacingLeft=20;align=center;verticalAlign=top;whiteSpace=wrap;html=1;" parent="XpxgRr7ZllXwCVMDja0l-86" vertex="1">
          <mxGeometry x="30" y="130" width="130" height="50" as="geometry" />
        </mxCell>
        <mxCell id="XpxgRr7ZllXwCVMDja0l-24" value="CSATus" style="shape=module;align=left;spacingLeft=20;align=center;verticalAlign=top;whiteSpace=wrap;html=1;" parent="XpxgRr7ZllXwCVMDja0l-86" vertex="1">
          <mxGeometry x="190" y="60" width="130" height="50" as="geometry" />
        </mxCell>
        <mxCell id="XpxgRr7ZllXwCVMDja0l-49" value="Employee Platform" style="shape=module;align=left;spacingLeft=20;align=center;verticalAlign=top;whiteSpace=wrap;html=1;dashed=1;dashPattern=8 8;" parent="XpxgRr7ZllXwCVMDja0l-86" vertex="1">
          <mxGeometry x="170" y="200" width="150" height="50" as="geometry" />
        </mxCell>
        <mxCell id="XpxgRr7ZllXwCVMDja0l-87" style="edgeStyle=orthogonalEdgeStyle;rounded=0;orthogonalLoop=1;jettySize=auto;html=1;" parent="1" source="XpxgRr7ZllXwCVMDja0l-48" target="XpxgRr7ZllXwCVMDja0l-59" edge="1">
          <mxGeometry relative="1" as="geometry" />
        </mxCell>
        <mxCell id="XpxgRr7ZllXwCVMDja0l-88" style="edgeStyle=orthogonalEdgeStyle;rounded=0;orthogonalLoop=1;jettySize=auto;html=1;entryX=1;entryY=0.5;entryDx=0;entryDy=0;entryPerimeter=0;" parent="1" source="XpxgRr7ZllXwCVMDja0l-33" target="XpxgRr7ZllXwCVMDja0l-70" edge="1">
          <mxGeometry relative="1" as="geometry">
            <Array as="points">
              <mxPoint x="1220" y="-440" />
            </Array>
          </mxGeometry>
        </mxCell>
        <mxCell id="XpxgRr7ZllXwCVMDja0l-90" style="edgeStyle=orthogonalEdgeStyle;rounded=0;orthogonalLoop=1;jettySize=auto;html=1;entryX=1;entryY=0.5;entryDx=0;entryDy=0;entryPerimeter=0;dashed=1;" parent="1" source="XpxgRr7ZllXwCVMDja0l-75" target="XpxgRr7ZllXwCVMDja0l-29" edge="1">
          <mxGeometry relative="1" as="geometry" />
        </mxCell>
        <mxCell id="XpxgRr7ZllXwCVMDja0l-91" value="встраиваются в интерфейс" style="shape=providedRequiredInterface;html=1;verticalLabelPosition=bottom;sketch=0;" parent="1" vertex="1">
          <mxGeometry x="1620" y="370" width="20" height="20" as="geometry" />
        </mxCell>
        <mxCell id="XpxgRr7ZllXwCVMDja0l-92" style="edgeStyle=orthogonalEdgeStyle;rounded=0;orthogonalLoop=1;jettySize=auto;html=1;entryX=0.998;entryY=0.428;entryDx=0;entryDy=0;entryPerimeter=0;" parent="1" source="XpxgRr7ZllXwCVMDja0l-91" target="XpxgRr7ZllXwCVMDja0l-42" edge="1">
          <mxGeometry relative="1" as="geometry">
            <Array as="points">
              <mxPoint x="1630" y="455" />
              <mxPoint x="1820" y="455" />
              <mxPoint x="1820" y="618" />
            </Array>
          </mxGeometry>
        </mxCell>
        <mxCell id="7s3dTTGu1TtM-MfIiU9b-2" value="&lt;div&gt;покажи&lt;/div&gt;&lt;div&gt;шторку&lt;/div&gt;" style="shape=providedRequiredInterface;html=1;verticalLabelPosition=bottom;sketch=0;" parent="1" vertex="1">
          <mxGeometry x="375" y="-260" width="20" height="20" as="geometry" />
        </mxCell>
        <mxCell id="7s3dTTGu1TtM-MfIiU9b-5" style="edgeStyle=orthogonalEdgeStyle;rounded=0;orthogonalLoop=1;jettySize=auto;html=1;entryX=0;entryY=0.5;entryDx=0;entryDy=0;entryPerimeter=0;" parent="1" source="XpxgRr7ZllXwCVMDja0l-4" target="7s3dTTGu1TtM-MfIiU9b-2" edge="1">
          <mxGeometry relative="1" as="geometry">
            <Array as="points">
              <mxPoint x="165" y="-250" />
            </Array>
          </mxGeometry>
        </mxCell>
        <mxCell id="7s3dTTGu1TtM-MfIiU9b-6" style="edgeStyle=orthogonalEdgeStyle;rounded=0;orthogonalLoop=1;jettySize=auto;html=1;entryX=1;entryY=0.5;entryDx=0;entryDy=0;entryPerimeter=0;exitX=0;exitY=0;exitDx=0;exitDy=35;exitPerimeter=0;" parent="1" source="7s3dTTGu1TtM-MfIiU9b-1" target="7s3dTTGu1TtM-MfIiU9b-2" edge="1">
          <mxGeometry relative="1" as="geometry" />
        </mxCell>
        <mxCell id="7s3dTTGu1TtM-MfIiU9b-7" value="" style="rounded=0;whiteSpace=wrap;html=1;fillColor=#dae8fc;strokeColor=#6c8ebf;" parent="1" vertex="1">
          <mxGeometry x="970" y="-720" width="150" height="100" as="geometry" />
        </mxCell>
        <mxCell id="7s3dTTGu1TtM-MfIiU9b-8" value="RecSys.Support" style="shape=module;align=left;spacingLeft=20;align=center;verticalAlign=top;whiteSpace=wrap;html=1;" parent="1" vertex="1">
          <mxGeometry x="990" y="-695" width="120" height="50" as="geometry" />
        </mxCell>
        <mxCell id="7s3dTTGu1TtM-MfIiU9b-9" value="Персонализация" style="text;html=1;align=center;verticalAlign=middle;resizable=0;points=[];autosize=1;strokeColor=none;fillColor=none;" parent="1" vertex="1">
          <mxGeometry x="970" y="-750" width="120" height="30" as="geometry" />
        </mxCell>
        <mxCell id="7s3dTTGu1TtM-MfIiU9b-10" style="edgeStyle=orthogonalEdgeStyle;rounded=0;orthogonalLoop=1;jettySize=auto;html=1;" parent="1" source="7s3dTTGu1TtM-MfIiU9b-12" target="7s3dTTGu1TtM-MfIiU9b-8" edge="1">
          <mxGeometry relative="1" as="geometry" />
        </mxCell>
        <mxCell id="7s3dTTGu1TtM-MfIiU9b-13" value="" style="edgeStyle=orthogonalEdgeStyle;rounded=0;orthogonalLoop=1;jettySize=auto;html=1;" parent="1" source="7s3dTTGu1TtM-MfIiU9b-1" target="7s3dTTGu1TtM-MfIiU9b-12" edge="1">
          <mxGeometry relative="1" as="geometry">
            <mxPoint x="1065" y="-340" as="sourcePoint" />
            <mxPoint x="1050" y="-645" as="targetPoint" />
          </mxGeometry>
        </mxCell>
        <mxCell id="7s3dTTGu1TtM-MfIiU9b-12" value="что показать клиенту?" style="shape=providedRequiredInterface;html=1;verticalLabelPosition=bottom;sketch=0;" parent="1" vertex="1">
          <mxGeometry x="1055" y="-500" width="20" height="20" as="geometry" />
        </mxCell>
        <mxCell id="7s3dTTGu1TtM-MfIiU9b-15" style="edgeStyle=orthogonalEdgeStyle;rounded=0;orthogonalLoop=1;jettySize=auto;html=1;entryX=0.5;entryY=1;entryDx=0;entryDy=0;" parent="1" source="7s3dTTGu1TtM-MfIiU9b-14" target="XpxgRr7ZllXwCVMDja0l-42" edge="1">
          <mxGeometry relative="1" as="geometry" />
        </mxCell>
        <mxCell id="7s3dTTGu1TtM-MfIiU9b-14" value="Оператор" style="shape=umlActor;verticalLabelPosition=bottom;verticalAlign=top;html=1;" parent="1" vertex="1">
          <mxGeometry x="1510" y="860" width="30" height="60" as="geometry" />
        </mxCell>
        <mxCell id="7s3dTTGu1TtM-MfIiU9b-17" style="edgeStyle=orthogonalEdgeStyle;rounded=0;orthogonalLoop=1;jettySize=auto;html=1;entryX=0.5;entryY=1;entryDx=0;entryDy=0;" parent="1" source="7s3dTTGu1TtM-MfIiU9b-16" target="XpxgRr7ZllXwCVMDja0l-52" edge="1">
          <mxGeometry relative="1" as="geometry" />
        </mxCell>
        <mxCell id="7s3dTTGu1TtM-MfIiU9b-16" value="Клиент" style="shape=umlActor;verticalLabelPosition=bottom;verticalAlign=top;html=1;" parent="1" vertex="1">
          <mxGeometry x="982" y="820" width="30" height="60" as="geometry" />
        </mxCell>
        <mxCell id="7s3dTTGu1TtM-MfIiU9b-21" style="edgeStyle=orthogonalEdgeStyle;rounded=0;orthogonalLoop=1;jettySize=auto;html=1;" parent="1" source="7s3dTTGu1TtM-MfIiU9b-20" target="XpxgRr7ZllXwCVMDja0l-69" edge="1">
          <mxGeometry relative="1" as="geometry" />
        </mxCell>
        <mxCell id="7s3dTTGu1TtM-MfIiU9b-20" value="Оператор" style="shape=umlActor;verticalLabelPosition=bottom;verticalAlign=top;html=1;" parent="1" vertex="1">
          <mxGeometry x="610" y="-960" width="30" height="60" as="geometry" />
        </mxCell>
        <mxCell id="7s3dTTGu1TtM-MfIiU9b-23" style="edgeStyle=orthogonalEdgeStyle;rounded=0;orthogonalLoop=1;jettySize=auto;html=1;" parent="1" source="7s3dTTGu1TtM-MfIiU9b-22" target="XpxgRr7ZllXwCVMDja0l-68" edge="1">
          <mxGeometry relative="1" as="geometry" />
        </mxCell>
        <mxCell id="7s3dTTGu1TtM-MfIiU9b-22" value="Клиент" style="shape=umlActor;verticalLabelPosition=bottom;verticalAlign=top;html=1;" parent="1" vertex="1">
          <mxGeometry x="430" y="-960" width="30" height="60" as="geometry" />
        </mxCell>
        <mxCell id="7s3dTTGu1TtM-MfIiU9b-25" style="edgeStyle=orthogonalEdgeStyle;rounded=0;orthogonalLoop=1;jettySize=auto;html=1;" parent="1" source="7s3dTTGu1TtM-MfIiU9b-24" target="XpxgRr7ZllXwCVMDja0l-32" edge="1">
          <mxGeometry relative="1" as="geometry" />
        </mxCell>
        <mxCell id="7s3dTTGu1TtM-MfIiU9b-24" value="Оператор" style="shape=umlActor;verticalLabelPosition=bottom;verticalAlign=top;html=1;" parent="1" vertex="1">
          <mxGeometry x="2020" y="-118" width="30" height="60" as="geometry" />
        </mxCell>
        <mxCell id="9NRflTOE4pOhBBJl8ECs-1" value="Tasks" style="shape=module;align=left;spacingLeft=20;align=center;verticalAlign=top;whiteSpace=wrap;html=1;" parent="1" vertex="1">
          <mxGeometry x="1650" y="-10" width="130" height="50" as="geometry" />
        </mxCell>
        <mxCell id="9NRflTOE4pOhBBJl8ECs-2" style="edgeStyle=orthogonalEdgeStyle;rounded=0;orthogonalLoop=1;jettySize=auto;html=1;" parent="1" source="XpxgRr7ZllXwCVMDja0l-57" target="9NRflTOE4pOhBBJl8ECs-1" edge="1">
          <mxGeometry relative="1" as="geometry">
            <Array as="points">
              <mxPoint x="1055" y="990" />
              <mxPoint x="1860" y="990" />
              <mxPoint x="1860" y="15" />
            </Array>
          </mxGeometry>
        </mxCell>
        <mxCell id="9NRflTOE4pOhBBJl8ECs-5" style="edgeStyle=orthogonalEdgeStyle;rounded=0;orthogonalLoop=1;jettySize=auto;html=1;dashed=1;" parent="1" source="9NRflTOE4pOhBBJl8ECs-4" target="XpxgRr7ZllXwCVMDja0l-42" edge="1">
          <mxGeometry relative="1" as="geometry" />
        </mxCell>
        <mxCell id="9NRflTOE4pOhBBJl8ECs-4" value="Поиск процедур&lt;br&gt;Карточка клиента&lt;br&gt;&lt;div&gt;Виджет продаж&lt;/div&gt;&lt;div&gt;Список продуктов&lt;/div&gt;&lt;div&gt;Таймлайн&lt;/div&gt;" style="text;html=1;align=left;verticalAlign=middle;resizable=0;points=[];autosize=1;strokeColor=#6c8ebf;fillColor=#dae8fc;" parent="1" vertex="1">
          <mxGeometry x="1890" y="590" width="120" height="90" as="geometry" />
        </mxCell>
        <mxCell id="9NRflTOE4pOhBBJl8ECs-6" value="IDM" style="shape=module;align=left;spacingLeft=20;align=center;verticalAlign=top;whiteSpace=wrap;html=1;" parent="1" vertex="1">
          <mxGeometry x="1125" y="785" width="150" height="50" as="geometry" />
        </mxCell>
        <mxCell id="9NRflTOE4pOhBBJl8ECs-7" value="" style="edgeStyle=orthogonalEdgeStyle;rounded=0;orthogonalLoop=1;jettySize=auto;html=1;" parent="1" source="9NRflTOE4pOhBBJl8ECs-8" target="9NRflTOE4pOhBBJl8ECs-6" edge="1">
          <mxGeometry relative="1" as="geometry" />
        </mxCell>
        <mxCell id="9NRflTOE4pOhBBJl8ECs-9" value="" style="edgeStyle=orthogonalEdgeStyle;rounded=0;orthogonalLoop=1;jettySize=auto;html=1;" parent="1" source="XpxgRr7ZllXwCVMDja0l-48" target="9NRflTOE4pOhBBJl8ECs-8" edge="1">
          <mxGeometry relative="1" as="geometry">
            <mxPoint x="1400" y="730" as="sourcePoint" />
            <mxPoint x="1400" y="910" as="targetPoint" />
          </mxGeometry>
        </mxCell>
        <mxCell id="9NRflTOE4pOhBBJl8ECs-8" value="Выписка Прав" style="shape=providedRequiredInterface;html=1;verticalLabelPosition=bottom;sketch=0;" parent="1" vertex="1">
          <mxGeometry x="1388.5" y="800" width="20" height="20" as="geometry" />
        </mxCell>
        <mxCell id="I0FnZhet7ruTslGoz57g-3" style="edgeStyle=orthogonalEdgeStyle;rounded=0;orthogonalLoop=1;jettySize=auto;html=1;entryX=0.5;entryY=1;entryDx=0;entryDy=0;" edge="1" parent="1" source="I0FnZhet7ruTslGoz57g-1" target="XpxgRr7ZllXwCVMDja0l-19">
          <mxGeometry relative="1" as="geometry">
            <Array as="points">
              <mxPoint x="2390" y="-200" />
              <mxPoint x="2390" y="1090" />
              <mxPoint x="357" y="1090" />
            </Array>
          </mxGeometry>
        </mxCell>
        <mxCell id="I0FnZhet7ruTslGoz57g-1" value="Логи выполнения процедур" style="shape=providedRequiredInterface;html=1;verticalLabelPosition=bottom;sketch=0;" vertex="1" parent="1">
          <mxGeometry x="1715" y="-210" width="20" height="20" as="geometry" />
        </mxCell>
        <mxCell id="I0FnZhet7ruTslGoz57g-2" style="edgeStyle=orthogonalEdgeStyle;rounded=0;orthogonalLoop=1;jettySize=auto;html=1;entryX=0;entryY=0.5;entryDx=0;entryDy=0;entryPerimeter=0;" edge="1" parent="1" source="XpxgRr7ZllXwCVMDja0l-32" target="I0FnZhet7ruTslGoz57g-1">
          <mxGeometry relative="1" as="geometry" />
        </mxCell>
      </root>
    </mxGraphModel>
  </diagram>
  <diagram id="ZDqaU_MJ8qgsWm_EXWQ3" name="Эффективность сотрудника">
    <mxGraphModel dx="978" dy="586" grid="1" gridSize="10" guides="1" tooltips="1" connect="1" arrows="1" fold="1" page="1" pageScale="1" pageWidth="850" pageHeight="1100" math="0" shadow="0">
      <root>
        <mxCell id="0" />
        <mxCell id="1" parent="0" />
        <mxCell id="--z5KTTpP6kzXP9tqemI-1" value="" style="rounded=0;whiteSpace=wrap;html=1;" vertex="1" parent="1">
          <mxGeometry x="380" y="120" width="300" height="100" as="geometry" />
        </mxCell>
        <mxCell id="fptO5w_gnC3QlhmaGzBm-4" value="" style="rounded=0;whiteSpace=wrap;html=1;" parent="1" vertex="1">
          <mxGeometry x="160" y="120" width="140" height="100" as="geometry" />
        </mxCell>
        <mxCell id="fptO5w_gnC3QlhmaGzBm-1" value="SLA за деньги" style="shape=module;align=left;spacingLeft=20;align=center;verticalAlign=top;whiteSpace=wrap;html=1;" parent="1" vertex="1">
          <mxGeometry x="180" y="145" width="100" height="50" as="geometry" />
        </mxCell>
        <mxCell id="fptO5w_gnC3QlhmaGzBm-2" value="Развитие сотрудника" style="shape=module;align=left;spacingLeft=20;align=center;verticalAlign=top;whiteSpace=wrap;html=1;" parent="1" vertex="1">
          <mxGeometry x="400" y="145" width="100" height="50" as="geometry" />
        </mxCell>
        <mxCell id="fptO5w_gnC3QlhmaGzBm-5" value="TWFM" style="text;html=1;align=center;verticalAlign=middle;resizable=0;points=[];autosize=1;strokeColor=none;fillColor=none;" parent="1" vertex="1">
          <mxGeometry x="160" y="90" width="60" height="30" as="geometry" />
        </mxCell>
        <mxCell id="--z5KTTpP6kzXP9tqemI-2" value="Первая линия" style="text;html=1;align=center;verticalAlign=middle;resizable=0;points=[];autosize=1;strokeColor=none;fillColor=none;" vertex="1" parent="1">
          <mxGeometry x="380" y="90" width="100" height="30" as="geometry" />
        </mxCell>
        <mxCell id="--z5KTTpP6kzXP9tqemI-3" value="" style="rounded=0;whiteSpace=wrap;html=1;" vertex="1" parent="1">
          <mxGeometry x="160" y="280" width="140" height="100" as="geometry" />
        </mxCell>
        <mxCell id="--z5KTTpP6kzXP9tqemI-4" value="TQM" style="shape=module;align=left;spacingLeft=20;align=center;verticalAlign=top;whiteSpace=wrap;html=1;" vertex="1" parent="1">
          <mxGeometry x="180" y="305" width="100" height="50" as="geometry" />
        </mxCell>
        <mxCell id="--z5KTTpP6kzXP9tqemI-5" value="Умная Поддержка" style="text;html=1;align=center;verticalAlign=middle;resizable=0;points=[];autosize=1;strokeColor=none;fillColor=none;" vertex="1" parent="1">
          <mxGeometry x="160" y="250" width="130" height="30" as="geometry" />
        </mxCell>
      </root>
    </mxGraphModel>
  </diagram>
  <diagram id="3VZEIVm8V6F-LIaVJ_aD" name="Процессы Обслуживания">
    <mxGraphModel dx="3295" dy="2565" grid="1" gridSize="10" guides="1" tooltips="1" connect="1" arrows="1" fold="1" page="1" pageScale="1" pageWidth="850" pageHeight="1100" math="0" shadow="0">
      <root>
        <mxCell id="0" />
        <mxCell id="1" parent="0" />
        <mxCell id="8k9S_Gfa90XHphGi78lB-64" value="" style="rounded=0;whiteSpace=wrap;html=1;" vertex="1" parent="1">
          <mxGeometry x="-20" y="1760" width="140" height="100" as="geometry" />
        </mxCell>
        <mxCell id="RXLpGlDS-nUFLSzgDr5c-46" value="" style="rounded=0;whiteSpace=wrap;html=1;movable=0;resizable=0;rotatable=0;deletable=0;editable=0;locked=1;connectable=0;" parent="1" vertex="1">
          <mxGeometry x="-280" y="430" width="620" height="1230" as="geometry" />
        </mxCell>
        <mxCell id="RXLpGlDS-nUFLSzgDr5c-1" value="Flare" style="shape=module;align=left;spacingLeft=20;align=center;verticalAlign=top;whiteSpace=wrap;html=1;fillColor=#d5e8d4;strokeColor=#82b366;" parent="1" vertex="1">
          <mxGeometry x="-390" y="150" width="100" height="50" as="geometry" />
        </mxCell>
        <mxCell id="RXLpGlDS-nUFLSzgDr5c-4" value="" style="rounded=0;whiteSpace=wrap;html=1;" parent="1" vertex="1">
          <mxGeometry x="520" y="155" width="400" height="110" as="geometry" />
        </mxCell>
        <mxCell id="RXLpGlDS-nUFLSzgDr5c-5" value="Надежность ПО" style="text;html=1;align=center;verticalAlign=middle;resizable=0;points=[];autosize=1;strokeColor=none;fillColor=none;" parent="1" vertex="1">
          <mxGeometry x="520" y="130" width="110" height="30" as="geometry" />
        </mxCell>
        <mxCell id="RXLpGlDS-nUFLSzgDr5c-2" value="SRE" style="shape=module;align=left;spacingLeft=20;align=center;verticalAlign=top;whiteSpace=wrap;html=1;" parent="1" vertex="1">
          <mxGeometry x="560" y="185" width="100" height="50" as="geometry" />
        </mxCell>
        <mxCell id="RXLpGlDS-nUFLSzgDr5c-6" value="Tooling" style="shape=module;align=left;spacingLeft=20;align=center;verticalAlign=top;whiteSpace=wrap;html=1;" parent="1" vertex="1">
          <mxGeometry x="800" y="185" width="100" height="50" as="geometry" />
        </mxCell>
        <mxCell id="RXLpGlDS-nUFLSzgDr5c-7" value="Страховая" style="shape=module;align=left;spacingLeft=20;align=center;verticalAlign=top;whiteSpace=wrap;html=1;fillColor=#d5e8d4;strokeColor=#82b366;" parent="1" vertex="1">
          <mxGeometry x="70" y="530" width="100" height="50" as="geometry" />
        </mxCell>
        <mxCell id="RXLpGlDS-nUFLSzgDr5c-8" value="Origination" style="shape=module;align=left;spacingLeft=20;align=center;verticalAlign=top;whiteSpace=wrap;html=1;fillColor=#fff2cc;strokeColor=#d6b656;" parent="1" vertex="1">
          <mxGeometry x="-10" y="1020" width="100" height="50" as="geometry" />
        </mxCell>
        <mxCell id="RXLpGlDS-nUFLSzgDr5c-9" value="Инвестиции" style="shape=module;align=left;spacingLeft=20;align=center;verticalAlign=top;whiteSpace=wrap;html=1;fillColor=#f8cecc;strokeColor=#b85450;" parent="1" vertex="1">
          <mxGeometry x="-10" y="900" width="100" height="50" as="geometry" />
        </mxCell>
        <mxCell id="RXLpGlDS-nUFLSzgDr5c-10" value="Антифрод" style="shape=module;align=left;spacingLeft=20;align=center;verticalAlign=top;whiteSpace=wrap;html=1;fillColor=#fff2cc;strokeColor=#d6b656;" parent="1" vertex="1">
          <mxGeometry x="-10" y="1130" width="100" height="50" as="geometry" />
        </mxCell>
        <mxCell id="RXLpGlDS-nUFLSzgDr5c-11" value="" style="rounded=0;whiteSpace=wrap;html=1;" parent="1" vertex="1">
          <mxGeometry x="-30" y="1310" width="160" height="190" as="geometry" />
        </mxCell>
        <mxCell id="RXLpGlDS-nUFLSzgDr5c-12" value="Бенефиты и лояльность" style="text;html=1;align=center;verticalAlign=middle;resizable=0;points=[];autosize=1;strokeColor=none;fillColor=none;" parent="1" vertex="1">
          <mxGeometry x="-30" y="1280" width="160" height="30" as="geometry" />
        </mxCell>
        <mxCell id="RXLpGlDS-nUFLSzgDr5c-13" value="Выгода" style="shape=module;align=left;spacingLeft=20;align=center;verticalAlign=top;whiteSpace=wrap;html=1;fillColor=#d5e8d4;strokeColor=#82b366;" parent="1" vertex="1">
          <mxGeometry y="1330" width="100" height="50" as="geometry" />
        </mxCell>
        <mxCell id="RXLpGlDS-nUFLSzgDr5c-14" value="Кошелек лояльности" style="shape=module;align=left;spacingLeft=20;align=center;verticalAlign=top;whiteSpace=wrap;html=1;fillColor=#d5e8d4;strokeColor=#82b366;" parent="1" vertex="1">
          <mxGeometry x="315" y="1390" width="100" height="50" as="geometry" />
        </mxCell>
        <mxCell id="RXLpGlDS-nUFLSzgDr5c-15" value="Программы лояльности" style="shape=module;align=left;spacingLeft=20;align=center;verticalAlign=top;whiteSpace=wrap;html=1;fillColor=#d5e8d4;strokeColor=#82b366;" parent="1" vertex="1">
          <mxGeometry y="1425" width="100" height="50" as="geometry" />
        </mxCell>
        <mxCell id="RXLpGlDS-nUFLSzgDr5c-16" value="Документы и Справки" style="shape=module;align=left;spacingLeft=20;align=center;verticalAlign=top;whiteSpace=wrap;html=1;fillColor=#fff2cc;strokeColor=#d6b656;" parent="1" vertex="1">
          <mxGeometry x="-10" y="755" width="100" height="50" as="geometry" />
        </mxCell>
        <mxCell id="RXLpGlDS-nUFLSzgDr5c-22" style="edgeStyle=orthogonalEdgeStyle;rounded=0;orthogonalLoop=1;jettySize=auto;html=1;" parent="1" source="RXLpGlDS-nUFLSzgDr5c-17" target="RXLpGlDS-nUFLSzgDr5c-20" edge="1">
          <mxGeometry relative="1" as="geometry">
            <Array as="points">
              <mxPoint x="-190" y="785" />
              <mxPoint x="-190" y="510" />
            </Array>
          </mxGeometry>
        </mxCell>
        <mxCell id="RXLpGlDS-nUFLSzgDr5c-17" value="Клиент" style="shape=umlActor;verticalLabelPosition=bottom;verticalAlign=top;html=1;outlineConnect=0;" parent="1" vertex="1">
          <mxGeometry x="-400" y="1000" width="30" height="60" as="geometry" />
        </mxCell>
        <mxCell id="RXLpGlDS-nUFLSzgDr5c-20" value="&lt;div&gt;Изменение&lt;/div&gt;&lt;div&gt;Полиса&lt;/div&gt;" style="shape=providedRequiredInterface;html=1;verticalLabelPosition=bottom;sketch=0;" parent="1" vertex="1">
          <mxGeometry x="-60" y="500" width="20" height="20" as="geometry" />
        </mxCell>
        <mxCell id="RXLpGlDS-nUFLSzgDr5c-21" value="&lt;div&gt;Закрытие &lt;br&gt;&lt;/div&gt;&lt;div&gt;Полиса&lt;/div&gt;" style="shape=providedRequiredInterface;html=1;verticalLabelPosition=bottom;sketch=0;" parent="1" vertex="1">
          <mxGeometry x="-60" y="580" width="20" height="20" as="geometry" />
        </mxCell>
        <mxCell id="RXLpGlDS-nUFLSzgDr5c-23" style="edgeStyle=orthogonalEdgeStyle;rounded=0;orthogonalLoop=1;jettySize=auto;html=1;entryX=0;entryY=0.5;entryDx=0;entryDy=0;entryPerimeter=0;" parent="1" source="RXLpGlDS-nUFLSzgDr5c-17" target="RXLpGlDS-nUFLSzgDr5c-21" edge="1">
          <mxGeometry relative="1" as="geometry">
            <Array as="points">
              <mxPoint x="-190" y="785" />
              <mxPoint x="-190" y="590" />
            </Array>
          </mxGeometry>
        </mxCell>
        <mxCell id="RXLpGlDS-nUFLSzgDr5c-24" style="edgeStyle=orthogonalEdgeStyle;rounded=0;orthogonalLoop=1;jettySize=auto;html=1;entryX=0;entryY=0;entryDx=0;entryDy=15;entryPerimeter=0;" parent="1" source="RXLpGlDS-nUFLSzgDr5c-20" target="RXLpGlDS-nUFLSzgDr5c-7" edge="1">
          <mxGeometry relative="1" as="geometry" />
        </mxCell>
        <mxCell id="RXLpGlDS-nUFLSzgDr5c-25" style="edgeStyle=orthogonalEdgeStyle;rounded=0;orthogonalLoop=1;jettySize=auto;html=1;entryX=0;entryY=0;entryDx=0;entryDy=35;entryPerimeter=0;" parent="1" source="RXLpGlDS-nUFLSzgDr5c-21" target="RXLpGlDS-nUFLSzgDr5c-7" edge="1">
          <mxGeometry relative="1" as="geometry" />
        </mxCell>
        <mxCell id="RXLpGlDS-nUFLSzgDr5c-27" value="&lt;div&gt;Страховая&amp;nbsp;&lt;/div&gt;&lt;div&gt;(GW, API Gateway, ...)&lt;/div&gt;" style="ellipse;shape=cloud;whiteSpace=wrap;html=1;" parent="1" vertex="1">
          <mxGeometry x="430" y="520" width="190" height="95" as="geometry" />
        </mxCell>
        <mxCell id="RXLpGlDS-nUFLSzgDr5c-28" style="edgeStyle=orthogonalEdgeStyle;rounded=0;orthogonalLoop=1;jettySize=auto;html=1;entryX=0.07;entryY=0.4;entryDx=0;entryDy=0;entryPerimeter=0;" parent="1" source="RXLpGlDS-nUFLSzgDr5c-7" target="RXLpGlDS-nUFLSzgDr5c-27" edge="1">
          <mxGeometry relative="1" as="geometry" />
        </mxCell>
        <mxCell id="RXLpGlDS-nUFLSzgDr5c-29" value="РО БЛ" style="shape=umlActor;verticalLabelPosition=bottom;verticalAlign=top;html=1;" parent="1" vertex="1">
          <mxGeometry x="-740" y="90" width="30" height="60" as="geometry" />
        </mxCell>
        <mxCell id="RXLpGlDS-nUFLSzgDr5c-33" style="edgeStyle=orthogonalEdgeStyle;rounded=0;orthogonalLoop=1;jettySize=auto;html=1;" parent="1" source="RXLpGlDS-nUFLSzgDr5c-30" target="RXLpGlDS-nUFLSzgDr5c-31" edge="1">
          <mxGeometry relative="1" as="geometry">
            <Array as="points">
              <mxPoint x="-620" y="225" />
              <mxPoint x="-620" y="170" />
            </Array>
          </mxGeometry>
        </mxCell>
        <mxCell id="RXLpGlDS-nUFLSzgDr5c-30" value="РО ПО" style="shape=umlActor;verticalLabelPosition=bottom;verticalAlign=top;html=1;" parent="1" vertex="1">
          <mxGeometry x="-740" y="195" width="30" height="60" as="geometry" />
        </mxCell>
        <mxCell id="RXLpGlDS-nUFLSzgDr5c-31" value="&lt;div&gt;Управление &lt;br&gt;&lt;/div&gt;&lt;div&gt;Запусками&lt;/div&gt;" style="shape=providedRequiredInterface;html=1;verticalLabelPosition=bottom;sketch=0;" parent="1" vertex="1">
          <mxGeometry x="-530" y="160" width="20" height="20" as="geometry" />
        </mxCell>
        <mxCell id="RXLpGlDS-nUFLSzgDr5c-32" style="edgeStyle=orthogonalEdgeStyle;rounded=0;orthogonalLoop=1;jettySize=auto;html=1;entryX=0;entryY=0.5;entryDx=0;entryDy=0;entryPerimeter=0;" parent="1" source="RXLpGlDS-nUFLSzgDr5c-29" target="RXLpGlDS-nUFLSzgDr5c-31" edge="1">
          <mxGeometry relative="1" as="geometry" />
        </mxCell>
        <mxCell id="RXLpGlDS-nUFLSzgDr5c-34" style="edgeStyle=orthogonalEdgeStyle;rounded=0;orthogonalLoop=1;jettySize=auto;html=1;entryX=0;entryY=0;entryDx=0;entryDy=15;entryPerimeter=0;" parent="1" source="RXLpGlDS-nUFLSzgDr5c-31" target="RXLpGlDS-nUFLSzgDr5c-1" edge="1">
          <mxGeometry relative="1" as="geometry" />
        </mxCell>
        <mxCell id="RXLpGlDS-nUFLSzgDr5c-37" style="edgeStyle=orthogonalEdgeStyle;rounded=0;orthogonalLoop=1;jettySize=auto;html=1;entryX=1;entryY=0.5;entryDx=0;entryDy=0;" parent="1" source="RXLpGlDS-nUFLSzgDr5c-35" target="RXLpGlDS-nUFLSzgDr5c-2" edge="1">
          <mxGeometry relative="1" as="geometry" />
        </mxCell>
        <mxCell id="RXLpGlDS-nUFLSzgDr5c-35" value="&lt;div&gt;Инструменты&lt;/div&gt;&lt;div&gt;Мониторинга&lt;/div&gt;" style="shape=providedRequiredInterface;html=1;verticalLabelPosition=bottom;sketch=0;" parent="1" vertex="1">
          <mxGeometry x="730" y="200" width="20" height="20" as="geometry" />
        </mxCell>
        <mxCell id="RXLpGlDS-nUFLSzgDr5c-36" style="edgeStyle=orthogonalEdgeStyle;rounded=0;orthogonalLoop=1;jettySize=auto;html=1;entryX=1;entryY=0.5;entryDx=0;entryDy=0;entryPerimeter=0;" parent="1" source="RXLpGlDS-nUFLSzgDr5c-6" target="RXLpGlDS-nUFLSzgDr5c-35" edge="1">
          <mxGeometry relative="1" as="geometry" />
        </mxCell>
        <mxCell id="RXLpGlDS-nUFLSzgDr5c-47" style="edgeStyle=orthogonalEdgeStyle;rounded=0;orthogonalLoop=1;jettySize=auto;html=1;" parent="1" source="RXLpGlDS-nUFLSzgDr5c-38" target="RXLpGlDS-nUFLSzgDr5c-46" edge="1">
          <mxGeometry relative="1" as="geometry">
            <Array as="points">
              <mxPoint x="300" y="205" />
              <mxPoint x="300" y="320" />
              <mxPoint x="30" y="320" />
            </Array>
          </mxGeometry>
        </mxCell>
        <mxCell id="8k9S_Gfa90XHphGi78lB-50" style="edgeStyle=orthogonalEdgeStyle;rounded=0;orthogonalLoop=1;jettySize=auto;html=1;entryX=0.5;entryY=0;entryDx=0;entryDy=0;" edge="1" parent="1" source="RXLpGlDS-nUFLSzgDr5c-38" target="RXLpGlDS-nUFLSzgDr5c-1">
          <mxGeometry relative="1" as="geometry">
            <Array as="points">
              <mxPoint x="410" y="205" />
              <mxPoint x="410" y="-10" />
              <mxPoint x="-340" y="-10" />
            </Array>
          </mxGeometry>
        </mxCell>
        <mxCell id="RXLpGlDS-nUFLSzgDr5c-38" value="&lt;div&gt;Внедрение&lt;/div&gt;&lt;div&gt;Практик надежности&lt;/div&gt;" style="shape=providedRequiredInterface;html=1;verticalLabelPosition=bottom;sketch=0;" parent="1" vertex="1">
          <mxGeometry x="415" y="195" width="20" height="20" as="geometry" />
        </mxCell>
        <mxCell id="RXLpGlDS-nUFLSzgDr5c-39" style="edgeStyle=orthogonalEdgeStyle;rounded=0;orthogonalLoop=1;jettySize=auto;html=1;entryX=1;entryY=0.5;entryDx=0;entryDy=0;entryPerimeter=0;" parent="1" source="RXLpGlDS-nUFLSzgDr5c-2" target="RXLpGlDS-nUFLSzgDr5c-38" edge="1">
          <mxGeometry relative="1" as="geometry" />
        </mxCell>
        <mxCell id="RXLpGlDS-nUFLSzgDr5c-48" value="Процессы Обслуживания" style="text;html=1;align=center;verticalAlign=middle;resizable=0;points=[];autosize=1;strokeColor=none;fillColor=none;" parent="1" vertex="1">
          <mxGeometry x="-280" y="400" width="170" height="30" as="geometry" />
        </mxCell>
        <mxCell id="RXLpGlDS-nUFLSzgDr5c-50" value="Jasper Reports" style="ellipse;shape=cloud;whiteSpace=wrap;html=1;" parent="1" vertex="1">
          <mxGeometry x="470" y="672.5" width="170" height="85" as="geometry" />
        </mxCell>
        <mxCell id="RXLpGlDS-nUFLSzgDr5c-53" style="edgeStyle=orthogonalEdgeStyle;rounded=0;orthogonalLoop=1;jettySize=auto;html=1;entryX=1;entryY=0.5;entryDx=0;entryDy=0;" parent="1" source="RXLpGlDS-nUFLSzgDr5c-51" target="RXLpGlDS-nUFLSzgDr5c-16" edge="1">
          <mxGeometry relative="1" as="geometry" />
        </mxCell>
        <mxCell id="RXLpGlDS-nUFLSzgDr5c-51" value="&lt;div&gt;CRUD &lt;br&gt;&lt;/div&gt;&lt;div&gt;Шаблона&lt;/div&gt;&lt;div&gt;Документов&lt;/div&gt;" style="shape=providedRequiredInterface;html=1;verticalLabelPosition=bottom;sketch=0;" parent="1" vertex="1">
          <mxGeometry x="230" y="705" width="20" height="20" as="geometry" />
        </mxCell>
        <mxCell id="RXLpGlDS-nUFLSzgDr5c-52" style="edgeStyle=orthogonalEdgeStyle;rounded=0;orthogonalLoop=1;jettySize=auto;html=1;entryX=1;entryY=0.5;entryDx=0;entryDy=0;entryPerimeter=0;" parent="1" source="RXLpGlDS-nUFLSzgDr5c-50" target="RXLpGlDS-nUFLSzgDr5c-51" edge="1">
          <mxGeometry relative="1" as="geometry" />
        </mxCell>
        <mxCell id="RXLpGlDS-nUFLSzgDr5c-54" value="Заказ справки" style="shape=providedRequiredInterface;html=1;verticalLabelPosition=bottom;sketch=0;" parent="1" vertex="1">
          <mxGeometry x="-110" y="770" width="20" height="20" as="geometry" />
        </mxCell>
        <mxCell id="RXLpGlDS-nUFLSzgDr5c-55" style="edgeStyle=orthogonalEdgeStyle;rounded=0;orthogonalLoop=1;jettySize=auto;html=1;entryX=1;entryY=0.5;entryDx=0;entryDy=0;entryPerimeter=0;" parent="1" source="RXLpGlDS-nUFLSzgDr5c-16" target="RXLpGlDS-nUFLSzgDr5c-54" edge="1">
          <mxGeometry relative="1" as="geometry" />
        </mxCell>
        <mxCell id="RXLpGlDS-nUFLSzgDr5c-57" style="edgeStyle=orthogonalEdgeStyle;rounded=0;orthogonalLoop=1;jettySize=auto;html=1;entryX=0;entryY=0.5;entryDx=0;entryDy=0;entryPerimeter=0;" parent="1" source="RXLpGlDS-nUFLSzgDr5c-17" target="RXLpGlDS-nUFLSzgDr5c-54" edge="1">
          <mxGeometry relative="1" as="geometry">
            <Array as="points">
              <mxPoint x="-385" y="785" />
              <mxPoint x="-190" y="785" />
              <mxPoint x="-190" y="780" />
            </Array>
          </mxGeometry>
        </mxCell>
        <mxCell id="RXLpGlDS-nUFLSzgDr5c-58" value="&lt;div&gt;Откуда-то&lt;/div&gt;&lt;div&gt;берем данные&lt;/div&gt;" style="ellipse;shape=cloud;whiteSpace=wrap;html=1;" parent="1" vertex="1">
          <mxGeometry x="460" y="785" width="175" height="90" as="geometry" />
        </mxCell>
        <mxCell id="RXLpGlDS-nUFLSzgDr5c-62" style="edgeStyle=orthogonalEdgeStyle;rounded=0;orthogonalLoop=1;jettySize=auto;html=1;entryX=0;entryY=0.5;entryDx=0;entryDy=0;entryPerimeter=0;" parent="1" source="RXLpGlDS-nUFLSzgDr5c-1" target="8k9S_Gfa90XHphGi78lB-45" edge="1">
          <mxGeometry relative="1" as="geometry">
            <mxPoint x="-150" y="170" as="targetPoint" />
          </mxGeometry>
        </mxCell>
        <mxCell id="RXLpGlDS-nUFLSzgDr5c-67" style="edgeStyle=orthogonalEdgeStyle;rounded=0;orthogonalLoop=1;jettySize=auto;html=1;entryX=1;entryY=0.5;entryDx=0;entryDy=0;" parent="1" source="RXLpGlDS-nUFLSzgDr5c-65" target="RXLpGlDS-nUFLSzgDr5c-16" edge="1">
          <mxGeometry relative="1" as="geometry" />
        </mxCell>
        <mxCell id="RXLpGlDS-nUFLSzgDr5c-65" value="Сборка данных" style="shape=providedRequiredInterface;html=1;verticalLabelPosition=bottom;sketch=0;" parent="1" vertex="1">
          <mxGeometry x="230" y="820" width="20" height="20" as="geometry" />
        </mxCell>
        <mxCell id="RXLpGlDS-nUFLSzgDr5c-66" style="edgeStyle=orthogonalEdgeStyle;rounded=0;orthogonalLoop=1;jettySize=auto;html=1;entryX=1;entryY=0.5;entryDx=0;entryDy=0;entryPerimeter=0;" parent="1" source="RXLpGlDS-nUFLSzgDr5c-58" target="RXLpGlDS-nUFLSzgDr5c-65" edge="1">
          <mxGeometry relative="1" as="geometry" />
        </mxCell>
        <mxCell id="8k9S_Gfa90XHphGi78lB-1" value="иннерсорсинг" style="text;html=1;align=center;verticalAlign=middle;resizable=0;points=[];autosize=1;strokeColor=none;fillColor=none;" vertex="1" parent="1">
          <mxGeometry x="270" y="530" width="100" height="30" as="geometry" />
        </mxCell>
        <mxCell id="8k9S_Gfa90XHphGi78lB-2" style="edgeStyle=orthogonalEdgeStyle;rounded=0;orthogonalLoop=1;jettySize=auto;html=1;entryX=0;entryY=0;entryDx=0;entryDy=15;entryPerimeter=0;" edge="1" parent="1" source="RXLpGlDS-nUFLSzgDr5c-17" target="RXLpGlDS-nUFLSzgDr5c-9">
          <mxGeometry relative="1" as="geometry" />
        </mxCell>
        <mxCell id="8k9S_Gfa90XHphGi78lB-4" style="edgeStyle=orthogonalEdgeStyle;rounded=0;orthogonalLoop=1;jettySize=auto;html=1;dashed=1;" edge="1" parent="1" source="8k9S_Gfa90XHphGi78lB-3" target="RXLpGlDS-nUFLSzgDr5c-9">
          <mxGeometry relative="1" as="geometry" />
        </mxCell>
        <mxCell id="8k9S_Gfa90XHphGi78lB-3" value="Пока разбираемся" style="text;html=1;align=center;verticalAlign=middle;whiteSpace=wrap;rounded=0;fillColor=#dae8fc;strokeColor=#6c8ebf;" vertex="1" parent="1">
          <mxGeometry x="190" y="900" width="90" height="50" as="geometry" />
        </mxCell>
        <mxCell id="8k9S_Gfa90XHphGi78lB-5" style="edgeStyle=orthogonalEdgeStyle;rounded=0;orthogonalLoop=1;jettySize=auto;html=1;entryX=0;entryY=0;entryDx=0;entryDy=15;entryPerimeter=0;" edge="1" parent="1" source="RXLpGlDS-nUFLSzgDr5c-17" target="RXLpGlDS-nUFLSzgDr5c-8">
          <mxGeometry relative="1" as="geometry" />
        </mxCell>
        <mxCell id="8k9S_Gfa90XHphGi78lB-7" style="edgeStyle=orthogonalEdgeStyle;rounded=0;orthogonalLoop=1;jettySize=auto;html=1;entryX=1;entryY=0.25;entryDx=0;entryDy=0;dashed=1;" edge="1" parent="1" source="8k9S_Gfa90XHphGi78lB-6" target="RXLpGlDS-nUFLSzgDr5c-8">
          <mxGeometry relative="1" as="geometry" />
        </mxCell>
        <mxCell id="8k9S_Gfa90XHphGi78lB-6" value="Оформление заявки/Статус заявки. Ждем результатов гейта" style="text;html=1;align=center;verticalAlign=middle;whiteSpace=wrap;rounded=0;fillColor=#dae8fc;strokeColor=#6c8ebf;" vertex="1" parent="1">
          <mxGeometry x="170" y="990" width="150" height="80" as="geometry" />
        </mxCell>
        <mxCell id="8k9S_Gfa90XHphGi78lB-8" style="edgeStyle=orthogonalEdgeStyle;rounded=0;orthogonalLoop=1;jettySize=auto;html=1;entryX=0;entryY=0;entryDx=0;entryDy=15;entryPerimeter=0;" edge="1" parent="1" source="8k9S_Gfa90XHphGi78lB-16" target="RXLpGlDS-nUFLSzgDr5c-10">
          <mxGeometry relative="1" as="geometry" />
        </mxCell>
        <mxCell id="8k9S_Gfa90XHphGi78lB-9" value="Процессинг" style="ellipse;shape=cloud;whiteSpace=wrap;html=1;" vertex="1" parent="1">
          <mxGeometry x="465" y="1115" width="190" height="95" as="geometry" />
        </mxCell>
        <mxCell id="8k9S_Gfa90XHphGi78lB-12" value="" style="edgeStyle=orthogonalEdgeStyle;rounded=0;orthogonalLoop=1;jettySize=auto;html=1;entryX=0.07;entryY=0.4;entryDx=0;entryDy=0;entryPerimeter=0;" edge="1" parent="1" source="RXLpGlDS-nUFLSzgDr5c-10" target="8k9S_Gfa90XHphGi78lB-9">
          <mxGeometry relative="1" as="geometry">
            <mxPoint x="90" y="1155" as="sourcePoint" />
            <mxPoint x="177" y="1150" as="targetPoint" />
          </mxGeometry>
        </mxCell>
        <mxCell id="8k9S_Gfa90XHphGi78lB-15" value="" style="edgeStyle=orthogonalEdgeStyle;rounded=0;orthogonalLoop=1;jettySize=auto;html=1;entryX=0;entryY=0;entryDx=0;entryDy=15;entryPerimeter=0;" edge="1" parent="1" source="RXLpGlDS-nUFLSzgDr5c-17" target="8k9S_Gfa90XHphGi78lB-16">
          <mxGeometry relative="1" as="geometry">
            <mxPoint x="-370" y="785" as="sourcePoint" />
            <mxPoint x="-10" y="1145" as="targetPoint" />
            <Array as="points">
              <mxPoint x="-190" y="1030" />
              <mxPoint x="-190" y="1150" />
            </Array>
          </mxGeometry>
        </mxCell>
        <mxCell id="8k9S_Gfa90XHphGi78lB-16" value="&lt;div&gt;Выяснение деталей&amp;nbsp;&lt;/div&gt;&lt;div&gt;мошенничества&lt;/div&gt;" style="shape=providedRequiredInterface;html=1;verticalLabelPosition=bottom;sketch=0;" vertex="1" parent="1">
          <mxGeometry x="-110" y="1135" width="20" height="20" as="geometry" />
        </mxCell>
        <mxCell id="8k9S_Gfa90XHphGi78lB-18" value="ПиП" style="shape=module;align=left;spacingLeft=20;align=center;verticalAlign=top;whiteSpace=wrap;html=1;fillColor=#f8cecc;strokeColor=#b85450;" vertex="1" parent="1">
          <mxGeometry x="-10" y="1210" width="100" height="50" as="geometry" />
        </mxCell>
        <mxCell id="8k9S_Gfa90XHphGi78lB-19" style="edgeStyle=orthogonalEdgeStyle;rounded=0;orthogonalLoop=1;jettySize=auto;html=1;entryX=0;entryY=0;entryDx=0;entryDy=15;entryPerimeter=0;" edge="1" parent="1" source="RXLpGlDS-nUFLSzgDr5c-17" target="RXLpGlDS-nUFLSzgDr5c-13">
          <mxGeometry relative="1" as="geometry" />
        </mxCell>
        <mxCell id="8k9S_Gfa90XHphGi78lB-21" style="edgeStyle=orthogonalEdgeStyle;rounded=0;orthogonalLoop=1;jettySize=auto;html=1;entryX=0;entryY=0;entryDx=0;entryDy=15;entryPerimeter=0;" edge="1" parent="1" source="RXLpGlDS-nUFLSzgDr5c-17" target="RXLpGlDS-nUFLSzgDr5c-15">
          <mxGeometry relative="1" as="geometry" />
        </mxCell>
        <mxCell id="8k9S_Gfa90XHphGi78lB-22" value="МоК" style="ellipse;shape=cloud;whiteSpace=wrap;html=1;" vertex="1" parent="1">
          <mxGeometry x="470" y="1380" width="190" height="95" as="geometry" />
        </mxCell>
        <mxCell id="8k9S_Gfa90XHphGi78lB-23" style="edgeStyle=orthogonalEdgeStyle;rounded=0;orthogonalLoop=1;jettySize=auto;html=1;entryX=0.07;entryY=0.4;entryDx=0;entryDy=0;entryPerimeter=0;" edge="1" parent="1" source="RXLpGlDS-nUFLSzgDr5c-14" target="8k9S_Gfa90XHphGi78lB-22">
          <mxGeometry relative="1" as="geometry" />
        </mxCell>
        <mxCell id="8k9S_Gfa90XHphGi78lB-28" value="&lt;div&gt;компенсация&lt;/div&gt;" style="shape=providedRequiredInterface;html=1;verticalLabelPosition=bottom;sketch=0;" vertex="1" parent="1">
          <mxGeometry x="230" y="1395" width="20" height="20" as="geometry" />
        </mxCell>
        <mxCell id="8k9S_Gfa90XHphGi78lB-29" style="edgeStyle=orthogonalEdgeStyle;rounded=0;orthogonalLoop=1;jettySize=auto;html=1;entryX=0;entryY=0.5;entryDx=0;entryDy=0;entryPerimeter=0;" edge="1" parent="1" source="RXLpGlDS-nUFLSzgDr5c-13" target="8k9S_Gfa90XHphGi78lB-28">
          <mxGeometry relative="1" as="geometry" />
        </mxCell>
        <mxCell id="8k9S_Gfa90XHphGi78lB-30" style="edgeStyle=orthogonalEdgeStyle;rounded=0;orthogonalLoop=1;jettySize=auto;html=1;entryX=0;entryY=0;entryDx=0;entryDy=15;entryPerimeter=0;" edge="1" parent="1" source="8k9S_Gfa90XHphGi78lB-28" target="RXLpGlDS-nUFLSzgDr5c-14">
          <mxGeometry relative="1" as="geometry" />
        </mxCell>
        <mxCell id="8k9S_Gfa90XHphGi78lB-31" style="edgeStyle=orthogonalEdgeStyle;rounded=0;orthogonalLoop=1;jettySize=auto;html=1;entryX=0;entryY=0.5;entryDx=0;entryDy=0;entryPerimeter=0;" edge="1" parent="1" source="RXLpGlDS-nUFLSzgDr5c-15" target="8k9S_Gfa90XHphGi78lB-28">
          <mxGeometry relative="1" as="geometry" />
        </mxCell>
        <mxCell id="8k9S_Gfa90XHphGi78lB-32" value="MPM" style="ellipse;shape=cloud;whiteSpace=wrap;html=1;" vertex="1" parent="1">
          <mxGeometry x="470" y="1270" width="190" height="95" as="geometry" />
        </mxCell>
        <mxCell id="8k9S_Gfa90XHphGi78lB-33" style="edgeStyle=orthogonalEdgeStyle;rounded=0;orthogonalLoop=1;jettySize=auto;html=1;entryX=0.07;entryY=0.4;entryDx=0;entryDy=0;entryPerimeter=0;" edge="1" parent="1" source="8k9S_Gfa90XHphGi78lB-35" target="8k9S_Gfa90XHphGi78lB-32">
          <mxGeometry relative="1" as="geometry" />
        </mxCell>
        <mxCell id="8k9S_Gfa90XHphGi78lB-34" value="" style="edgeStyle=orthogonalEdgeStyle;rounded=0;orthogonalLoop=1;jettySize=auto;html=1;entryX=0.07;entryY=0.4;entryDx=0;entryDy=0;entryPerimeter=0;" edge="1" parent="1" source="RXLpGlDS-nUFLSzgDr5c-13" target="8k9S_Gfa90XHphGi78lB-35">
          <mxGeometry relative="1" as="geometry">
            <mxPoint x="100" y="1355" as="sourcePoint" />
            <mxPoint x="483" y="1308" as="targetPoint" />
            <Array as="points">
              <mxPoint x="230" y="1355" />
              <mxPoint x="230" y="1308" />
            </Array>
          </mxGeometry>
        </mxCell>
        <mxCell id="8k9S_Gfa90XHphGi78lB-35" value="дай инфу по акциям" style="shape=providedRequiredInterface;html=1;verticalLabelPosition=bottom;sketch=0;" vertex="1" parent="1">
          <mxGeometry x="290" y="1300" width="20" height="20" as="geometry" />
        </mxCell>
        <mxCell id="8k9S_Gfa90XHphGi78lB-36" value="Консультация по акциям" style="text;html=1;align=center;verticalAlign=middle;whiteSpace=wrap;rounded=0;" vertex="1" parent="1">
          <mxGeometry x="-150" y="1310" width="60" height="30" as="geometry" />
        </mxCell>
        <mxCell id="8k9S_Gfa90XHphGi78lB-37" value="Программа Лояльности" style="ellipse;shape=cloud;whiteSpace=wrap;html=1;" vertex="1" parent="1">
          <mxGeometry x="480" y="1490" width="190" height="95" as="geometry" />
        </mxCell>
        <mxCell id="8k9S_Gfa90XHphGi78lB-38" style="edgeStyle=orthogonalEdgeStyle;rounded=0;orthogonalLoop=1;jettySize=auto;html=1;entryX=0.07;entryY=0.4;entryDx=0;entryDy=0;entryPerimeter=0;exitX=1;exitY=0.5;exitDx=0;exitDy=0;exitPerimeter=0;" edge="1" parent="1" source="8k9S_Gfa90XHphGi78lB-40" target="8k9S_Gfa90XHphGi78lB-37">
          <mxGeometry relative="1" as="geometry">
            <mxPoint x="310" y="1500" as="sourcePoint" />
            <Array as="points">
              <mxPoint x="380" y="1520" />
              <mxPoint x="380" y="1528" />
            </Array>
          </mxGeometry>
        </mxCell>
        <mxCell id="8k9S_Gfa90XHphGi78lB-39" value="" style="edgeStyle=orthogonalEdgeStyle;rounded=0;orthogonalLoop=1;jettySize=auto;html=1;entryX=0.07;entryY=0.4;entryDx=0;entryDy=0;entryPerimeter=0;" edge="1" parent="1" source="RXLpGlDS-nUFLSzgDr5c-15" target="8k9S_Gfa90XHphGi78lB-40">
          <mxGeometry relative="1" as="geometry">
            <mxPoint x="100" y="1450" as="sourcePoint" />
            <mxPoint x="493" y="1528" as="targetPoint" />
            <Array as="points">
              <mxPoint x="190" y="1450" />
              <mxPoint x="190" y="1518" />
            </Array>
          </mxGeometry>
        </mxCell>
        <mxCell id="8k9S_Gfa90XHphGi78lB-40" value="дай инфу по ПЛ" style="shape=providedRequiredInterface;html=1;verticalLabelPosition=bottom;sketch=0;" vertex="1" parent="1">
          <mxGeometry x="235" y="1510" width="20" height="20" as="geometry" />
        </mxCell>
        <mxCell id="8k9S_Gfa90XHphGi78lB-41" value="&lt;div&gt;Консультация &lt;br&gt;&lt;/div&gt;&lt;div&gt;по ПЛ&lt;/div&gt;" style="text;html=1;align=center;verticalAlign=middle;whiteSpace=wrap;rounded=0;" vertex="1" parent="1">
          <mxGeometry x="-160" y="1400" width="80" height="30" as="geometry" />
        </mxCell>
        <mxCell id="8k9S_Gfa90XHphGi78lB-43" value="Jira" style="shape=module;align=left;spacingLeft=20;align=center;verticalAlign=top;whiteSpace=wrap;html=1;" vertex="1" parent="1">
          <mxGeometry x="-10" y="55" width="120" height="50" as="geometry" />
        </mxCell>
        <mxCell id="8k9S_Gfa90XHphGi78lB-44" value="&lt;div&gt;Продуктовый&lt;/div&gt;&lt;div&gt;Каталог&lt;/div&gt;" style="shape=module;align=left;spacingLeft=20;align=center;verticalAlign=top;whiteSpace=wrap;html=1;" vertex="1" parent="1">
          <mxGeometry x="-10" y="205" width="120" height="50" as="geometry" />
        </mxCell>
        <mxCell id="8k9S_Gfa90XHphGi78lB-45" value="&lt;div&gt;управление&lt;/div&gt;&lt;div&gt;задачками&lt;/div&gt;" style="shape=providedRequiredInterface;html=1;verticalLabelPosition=bottom;sketch=0;" vertex="1" parent="1">
          <mxGeometry x="-150" y="70" width="20" height="20" as="geometry" />
        </mxCell>
        <mxCell id="8k9S_Gfa90XHphGi78lB-46" style="edgeStyle=orthogonalEdgeStyle;rounded=0;orthogonalLoop=1;jettySize=auto;html=1;entryX=0;entryY=0;entryDx=0;entryDy=15;entryPerimeter=0;" edge="1" parent="1" source="8k9S_Gfa90XHphGi78lB-45" target="8k9S_Gfa90XHphGi78lB-43">
          <mxGeometry relative="1" as="geometry" />
        </mxCell>
        <mxCell id="8k9S_Gfa90XHphGi78lB-47" value="&lt;div&gt;дай продуктовую&lt;/div&gt;&lt;div&gt;структуру&lt;/div&gt;" style="shape=providedRequiredInterface;html=1;verticalLabelPosition=bottom;sketch=0;" vertex="1" parent="1">
          <mxGeometry x="-150" y="220" width="20" height="20" as="geometry" />
        </mxCell>
        <mxCell id="8k9S_Gfa90XHphGi78lB-48" style="edgeStyle=orthogonalEdgeStyle;rounded=0;orthogonalLoop=1;jettySize=auto;html=1;entryX=0;entryY=0.5;entryDx=0;entryDy=0;entryPerimeter=0;" edge="1" parent="1" source="RXLpGlDS-nUFLSzgDr5c-1" target="8k9S_Gfa90XHphGi78lB-47">
          <mxGeometry relative="1" as="geometry" />
        </mxCell>
        <mxCell id="8k9S_Gfa90XHphGi78lB-49" style="edgeStyle=orthogonalEdgeStyle;rounded=0;orthogonalLoop=1;jettySize=auto;html=1;entryX=0;entryY=0;entryDx=0;entryDy=15;entryPerimeter=0;" edge="1" parent="1" source="8k9S_Gfa90XHphGi78lB-47" target="8k9S_Gfa90XHphGi78lB-44">
          <mxGeometry relative="1" as="geometry" />
        </mxCell>
        <mxCell id="8k9S_Gfa90XHphGi78lB-51" value="" style="rounded=0;whiteSpace=wrap;html=1;fillColor=#f8cecc;strokeColor=#b85450;" vertex="1" parent="1">
          <mxGeometry x="740" y="450" width="290" height="170" as="geometry" />
        </mxCell>
        <mxCell id="8k9S_Gfa90XHphGi78lB-52" value="RnD инфраструктуры Агентов" style="text;html=1;align=center;verticalAlign=middle;resizable=0;points=[];autosize=1;strokeColor=none;fillColor=none;" vertex="1" parent="1">
          <mxGeometry x="725" y="420" width="190" height="30" as="geometry" />
        </mxCell>
        <mxCell id="8k9S_Gfa90XHphGi78lB-55" style="edgeStyle=orthogonalEdgeStyle;rounded=0;orthogonalLoop=1;jettySize=auto;html=1;" edge="1" parent="1" source="8k9S_Gfa90XHphGi78lB-53">
          <mxGeometry relative="1" as="geometry">
            <mxPoint x="340" y="450" as="targetPoint" />
          </mxGeometry>
        </mxCell>
        <mxCell id="8k9S_Gfa90XHphGi78lB-53" value="&lt;div&gt;Внедрение AI&lt;/div&gt;&lt;div&gt;практик&lt;/div&gt;" style="shape=providedRequiredInterface;html=1;verticalLabelPosition=bottom;sketch=0;" vertex="1" parent="1">
          <mxGeometry x="600" y="430" width="20" height="20" as="geometry" />
        </mxCell>
        <mxCell id="8k9S_Gfa90XHphGi78lB-54" style="edgeStyle=orthogonalEdgeStyle;rounded=0;orthogonalLoop=1;jettySize=auto;html=1;entryX=1;entryY=0.5;entryDx=0;entryDy=0;entryPerimeter=0;" edge="1" parent="1" source="8k9S_Gfa90XHphGi78lB-51" target="8k9S_Gfa90XHphGi78lB-53">
          <mxGeometry relative="1" as="geometry" />
        </mxCell>
        <mxCell id="8k9S_Gfa90XHphGi78lB-56" value="CI/CD Pipeline" style="shape=module;align=left;spacingLeft=20;align=center;verticalAlign=top;whiteSpace=wrap;html=1;" vertex="1" parent="1">
          <mxGeometry x="770" y="470" width="100" height="50" as="geometry" />
        </mxCell>
        <mxCell id="8k9S_Gfa90XHphGi78lB-57" value="LLM Benchmark" style="shape=module;align=left;spacingLeft=20;align=center;verticalAlign=top;whiteSpace=wrap;html=1;" vertex="1" parent="1">
          <mxGeometry x="900" y="470" width="100" height="50" as="geometry" />
        </mxCell>
        <mxCell id="8k9S_Gfa90XHphGi78lB-58" value="n8n" style="shape=module;align=left;spacingLeft=20;align=center;verticalAlign=top;whiteSpace=wrap;html=1;" vertex="1" parent="1">
          <mxGeometry x="770" y="550" width="100" height="50" as="geometry" />
        </mxCell>
        <mxCell id="8k9S_Gfa90XHphGi78lB-59" value="Run Команда" style="shape=module;align=left;spacingLeft=20;align=center;verticalAlign=top;whiteSpace=wrap;html=1;fillColor=#d5e8d4;strokeColor=#82b366;" vertex="1" parent="1">
          <mxGeometry y="1780" width="100" height="50" as="geometry" />
        </mxCell>
        <mxCell id="8k9S_Gfa90XHphGi78lB-60" value="BPM-аналитик" style="shape=umlActor;verticalLabelPosition=bottom;verticalAlign=top;html=1;" vertex="1" parent="1">
          <mxGeometry x="-440" y="1770" width="30" height="60" as="geometry" />
        </mxCell>
        <mxCell id="8k9S_Gfa90XHphGi78lB-61" value="создай Call!" style="shape=providedRequiredInterface;html=1;verticalLabelPosition=bottom;sketch=0;" vertex="1" parent="1">
          <mxGeometry x="-150" y="1790" width="20" height="20" as="geometry" />
        </mxCell>
        <mxCell id="8k9S_Gfa90XHphGi78lB-62" style="edgeStyle=orthogonalEdgeStyle;rounded=0;orthogonalLoop=1;jettySize=auto;html=1;entryX=0;entryY=0.5;entryDx=0;entryDy=0;entryPerimeter=0;" edge="1" parent="1" source="8k9S_Gfa90XHphGi78lB-60" target="8k9S_Gfa90XHphGi78lB-61">
          <mxGeometry relative="1" as="geometry" />
        </mxCell>
        <mxCell id="8k9S_Gfa90XHphGi78lB-63" style="edgeStyle=orthogonalEdgeStyle;rounded=0;orthogonalLoop=1;jettySize=auto;html=1;entryX=0;entryY=0;entryDx=0;entryDy=15;entryPerimeter=0;" edge="1" parent="1" source="8k9S_Gfa90XHphGi78lB-61" target="8k9S_Gfa90XHphGi78lB-59">
          <mxGeometry relative="1" as="geometry" />
        </mxCell>
        <mxCell id="xkwBalC3e4V9yKURDB0V-4" value="" style="group" vertex="1" connectable="0" parent="1">
          <mxGeometry x="-460" y="320" width="133" height="80" as="geometry" />
        </mxCell>
        <mxCell id="8k9S_Gfa90XHphGi78lB-42" value="не погружались" style="text;html=1;align=center;verticalAlign=middle;whiteSpace=wrap;rounded=0;fillColor=#f8cecc;strokeColor=#b85450;" vertex="1" parent="xkwBalC3e4V9yKURDB0V-4">
          <mxGeometry y="20" width="133" height="20" as="geometry" />
        </mxCell>
        <mxCell id="xkwBalC3e4V9yKURDB0V-1" value="готовятся к гейтам" style="text;html=1;align=center;verticalAlign=middle;whiteSpace=wrap;rounded=0;fillColor=#fff2cc;strokeColor=#d6b656;" vertex="1" parent="xkwBalC3e4V9yKURDB0V-4">
          <mxGeometry y="40" width="133" height="20" as="geometry" />
        </mxCell>
        <mxCell id="xkwBalC3e4V9yKURDB0V-2" value="проводится Op Review" style="text;html=1;align=center;verticalAlign=middle;whiteSpace=wrap;rounded=0;fillColor=#d5e8d4;strokeColor=#82b366;" vertex="1" parent="xkwBalC3e4V9yKURDB0V-4">
          <mxGeometry y="60" width="133" height="20" as="geometry" />
        </mxCell>
        <mxCell id="xkwBalC3e4V9yKURDB0V-3" value="Легенда" style="text;html=1;align=center;verticalAlign=middle;whiteSpace=wrap;rounded=0;" vertex="1" parent="xkwBalC3e4V9yKURDB0V-4">
          <mxGeometry width="133" height="20" as="geometry" />
        </mxCell>
      </root>
    </mxGraphModel>
  </diagram>
</mxfile>
